<?xml version="1.0" encoding="utf-8"?>
<svg xmlns="http://www.w3.org/2000/svg" xmlns:xlink="http://www.w3.org/1999/xlink" version= "1.1" width="2048px" height="1536px" viewBox="0 0 2048 1536">
<rect x="0" y="0" width="2048" height="1536" fill="rgb(255,255,255)"/>
<g id="layer1">
<g style="fill:rgb(163,53,142); fill-opacity:1.0; stroke-linejoin: miter">
<path d="M767.999,511.76642C767.9373,511.76642,767.87823,511.79092,767.8346,511.83453C767.79095,511.87814,767.7665,511.93732,767.7665,511.999L767.76746,1024.0C767.76746,1024.1284,767.8716,1024.2325,768.0,1024.2325L1280.001,1024.2335C1280.0626,1024.2335,1280.1218,1024.209,1280.1654,1024.1654C1280.209,1024.1218,1280.2335,1024.0626,1280.2335,1024.001L1280.2325,512.0C1280.2325,511.87155,1280.1284,511.76743,1280.0,511.76743L767.999,511.76642 Z"/>
</g>
</g>
<g id="layer2" opacity="0.0">
<g style="fill:rgb(255,255,255); fill-opacity:1.0; stroke-linejoin: miter">
<path d="M886.7558,967.9627L886.7558,967.9627L888.61633,577.2416C888.7053,558.5474,901.7663,542.4233,920.0346,538.4548L920.0346,538.4548C1150.6608,488.35474,1217.3728,590.4374,1231.3684,654.8633L1231.3685,654.86346C1233.7797,665.9625,1234.3104,674.43964,1234.4219,678.3675L1234.422,678.3702C1234.4491,679.32715,1234.4519,680.02594,1234.4493,680.4611L1234.4493,680.46796C1233.5935,823.0055,1070.3099,834.70795,1002.46826,834.30054L1002.46826,834.30054C957.71716,834.0318,923.34985,828.63885,922.2731,828.4686L928.5018,828.95795L928.5017,828.95795C906.4734,828.95795,888.6159,811.10046,888.6159,789.07214C888.6159,767.0438,906.4734,749.18634,928.5017,749.18634L928.5017,749.18634L928.5018,749.18634L934.73047,749.67566C933.7461,749.52,963.7573,754.295,1002.94727,754.5303L1002.94727,754.5303C1092.1389,755.06586,1154.3555,733.89124,1154.6791,679.98895L1154.6791,679.9958C1154.6766,680.4241,1154.6825,680.63477,1154.6823,680.627L1154.6824,680.6297C1154.6805,680.5672,1154.5728,677.1275,1153.4149,671.7974L1153.415,671.7976C1150.1737,656.8766,1131.2916,574.1946,936.9688,616.40826L968.3871,577.62146L966.52655,968.3426C966.42163,990.37067,948.4793,1008.14294,926.45123,1008.038C904.42316,1007.9331,886.6509,989.9908,886.7558,967.9627 Z"/>
</g>
</g>
<g id="layer3">
<g style="fill:rgb(255,255,255); fill-opacity:1.0; stroke-linejoin: miter">
<path d="M907.38965,921.7632L907.38965,921.7632L908.8889,606.8876C908.9607,591.82227,919.4863,578.8281,934.2084,575.63L934.2084,575.63C1120.0662,535.2552,1173.8281,617.52185,1185.1069,669.44165L1185.1072,669.4418C1187.0502,678.3863,1187.4779,685.2179,1187.5676,688.38324L1187.5679,688.38544C1187.5897,689.1566,1187.5919,689.7198,1187.5898,690.0705L1187.5898,690.076C1186.9001,804.9446,1055.3129,814.3754,1000.6404,814.04706L1000.6404,814.04706C964.5762,813.8305,936.8801,809.48444,936.01245,809.3472L941.032,809.7416L941.032,809.7416C923.2798,809.7416,908.8887,795.3505,908.8887,777.59827C908.8887,759.846,923.27966,745.45496,941.03186,745.45496L941.03186,745.45496L941.032,745.45496L946.0515,745.8493C945.2583,745.7239,969.44385,749.57196,1001.02637,749.7616L1001.02637,749.7616C1072.9043,750.1932,1123.0436,733.1289,1123.3044,689.69L1123.3044,689.6955C1123.3025,690.04065,1123.3071,690.21045,1123.307,690.20416L1123.307,690.20636C1123.3055,690.15594,1123.2186,687.384,1122.2856,683.08856L1122.2856,683.0887C1119.6736,671.0641,1104.4569,604.43207,947.85535,638.4514L973.1748,607.1937L971.67554,922.0693C971.59094,939.82135,957.1316,954.14374,939.3795,954.0592C921.62744,953.9746,907.30505,939.5152,907.38965,921.7632 Z"/>
</g>
</g>
</svg>